<?xml version="1.0" encoding="utf-8"?>
<!-- Generator: Adobe Illustrator 21.0.0, SVG Export Plug-In . SVG Version: 6.00 Build 0)  -->
<svg version="1.1" id="Capa_1" xmlns="http://www.w3.org/2000/svg" xmlns:xlink="http://www.w3.org/1999/xlink" x="0px" y="0px"
	 viewBox="0 0 100 100" style="enable-background:new 0 0 100 100;" xml:space="preserve">
<style type="text/css">
	.st0{fill:#0000DC;}
</style>
<g>
	<path class="st0" d="M98.5,40.1L89,36.9c-1.1-3.6-3.4-6.5-4.6-7.8c0.5-1.5,1.7-5.5,4.7-15.6l-1.2-2.2c-13.6-3.4-22.2,3.5-25.8,7.4
		c-5.8-1.2-11.5-1.5-17-0.9c-5.5,0.6-10.7,2.1-15.3,4.4c-4.5,2.2-8.4,5.2-11.5,8.7c-2.3,2.7-4.2,5.7-5.5,8.8c-0.9,0-2.4-0.2-3.8-0.9
		c-3.2-1.4-5-4.6-5.6-9.3L0,29.9c0.5,4.8,2.3,8.3,5.1,10.6c2.2,1.8,4.7,2.4,6.5,2.6c-2,6.9-1.5,14.6,1.7,22.3c1.8,4.6,4.1,7.8,5,9.1
		l-2,14.7l1.7,2h20.2l1.4-0.7l3.1-4.5c5.3,1.6,10.5,1,12.8,0.5l2.2,3.5l1.5,0.8h20.5l1.7-2L80,78.2c5-3.4,9-10.4,10.3-12.7l8.3-3
		l1.1-1.6V41.7L98.5,40.1z M96.3,59.8l-7.8,2.8l-1,0.8c0,0-1.2,2.4-3.1,5.1c-2.5,3.5-4.9,6-7.1,7.2l-0.9,1.8l1.3,9.7H60.1l-2.4-3.7
		l-1.9-0.7c-0.1,0-6.8,1.9-13.2-0.6l-2,0.6l-3.3,4.9H20l1.9-13.4L21.5,73c0,0-2.8-3.5-5-8.9C13.6,57,13.1,50.2,15,43.8
		c2.3-7.8,8.1-14.4,16.3-18.4c6.3-3.1,16.8-6.1,31-2.9l1.7-0.6c1.4-1.7,3.9-4.1,7.4-5.8c4.2-2.1,8.8-2.6,13.8-1.7
		c-4.1,13.9-4.4,14.8-4.4,14.8l0.5,1.8c0,0,3.6,3.5,4.6,7.8L87,40l9.3,3.1V59.8z"/>
	<path class="st0" d="M71.9,33.2c-3.7,0-6.8,3.1-6.8,6.8c0,3.7,3,6.8,6.8,6.8c3.8,0,6.8-3.1,6.8-6.8C78.7,36.3,75.7,33.2,71.9,33.2z
		 M71.9,43.3c-1.9,0-3.4-1.5-3.4-3.4c0-1.9,1.5-3.4,3.4-3.4c1.9,0,3.4,1.5,3.4,3.4C75.3,41.8,73.8,43.3,71.9,43.3z"/>
	<path class="st0" d="M38.1,27.4c-4.7,1.5-11.4,4.9-16.2,12.5l2.9,1.8c3.4-5.4,8.2-9.1,14.1-10.9c4.6-1.5,8.3-1.3,8.3-1.3l0.2-3.5
		C47.3,26,43.3,25.8,38.1,27.4z"/>
</g>
</svg>
