<?xml version="1.0" encoding="utf-8"?>
<!-- Generator: Adobe Illustrator 21.0.0, SVG Export Plug-In . SVG Version: 6.00 Build 0)  -->
<svg version="1.1" id="Capa_1" xmlns="http://www.w3.org/2000/svg" xmlns:xlink="http://www.w3.org/1999/xlink" x="0px" y="0px"
	 viewBox="0 0 100 100" style="enable-background:new 0 0 100 100;" xml:space="preserve">
<style type="text/css">
	.st0{fill:#0000DC;}
</style>
<g>
	<polygon class="st0" points="19.2,11.2 21.7,5.7 39.4,5.7 43.1,11.6 44.4,12.3 96,12.3 96,57.7 93.6,57.7 93.6,60.7 97.5,60.7 
		99,59.2 99,10.8 97.5,9.3 45.3,9.3 41.5,3.4 40.2,2.7 20.7,2.7 19.3,3.6 16.3,10.2 16.2,10.8 16.2,12.8 19.2,12.8 	"/>
	<path class="st0" d="M91.2,62.8V22.7l-1.5-1.5H37.5l-3.8-5.9l-1.3-0.7H13l-1.4,0.9l-3,6.6l-0.1,0.6v2h3V23l2.5-5.4h17.7l3.8,5.9
		l1.3,0.7h51.6v37.1c-1.7-0.7-3.6-1.2-5.5-1.3V34.8l-1.5-1.5H29.1l-3.8-5.9L24,26.7H4.5l-1.4,0.9l-3,6.6L0,34.8v48.4l1.5,1.5h62.1
		c2.5,7.3,9.5,12.6,17.7,12.6c10.3,0,18.7-8.4,18.7-18.7C100,71.9,96.5,66.1,91.2,62.8z M3,81.7V35.2l2.5-5.4h17.7l3.8,5.9l1.3,0.7
		h51.6V60c-9.6,0.7-17.3,8.8-17.3,18.6c0,1.1,0.1,2.1,0.3,3.1H3z M81.3,94.2c-8.6,0-15.6-7-15.6-15.6S72.7,63,81.3,63
		c8.7,0,15.6,7,15.6,15.6S89.9,94.2,81.3,94.2z"/>
	<polygon class="st0" points="77.9,83.3 72.1,78 70.1,80.3 77,86.5 79.1,86.4 91.5,72.8 89.3,70.8 	"/>
</g>
</svg>
