<?xml version="1.0" encoding="utf-8"?>
<!-- Generator: Adobe Illustrator 21.0.0, SVG Export Plug-In . SVG Version: 6.00 Build 0)  -->
<svg version="1.1" id="Capa_1" xmlns="http://www.w3.org/2000/svg" xmlns:xlink="http://www.w3.org/1999/xlink" x="0px" y="0px"
	 viewBox="0 0 100 100" style="enable-background:new 0 0 100 100;" xml:space="preserve">
<style type="text/css">
	.st0{fill:#ffffff;}
</style>
<g>
	<path class="st0" d="M45.9,46l-1.2-1.9l-1.4-0.8h-7.9l-1.5,1L32.7,47l-0.1,0.7v19.6l1.6,1.6h32.2l1.6-1.8V47.6L66.4,46H45.9z
		 M64.7,65.6H35.8V48.1l0.6-1.4h5.9l1.2,1.9l1.4,0.8h19.8V65.6z"/>
	<path class="st0" d="M93.5,62.7L81.7,50.9c-0.3-10.2-3.2-20.2-8.4-29C67.9,12.8,60.3,5.3,51.2,0h-1.7c-9.1,5.3-16.8,12.8-22.1,21.9
		c-5.2,8.7-8,18.7-8.4,28.9l-12,12L6.6,64v17.6l1.6,1.6h12.4h18.3c0.5,7,4.5,13.3,10.5,16.8h1.7c6-3.5,10-9.8,10.5-16.8h6.5v10.2
		c0,0.9,0.7,1.6,1.6,1.6s1.6-0.7,1.6-1.6V83.2h8.6h12.5l1.6-1.6V64L93.5,62.7z M50.3,3.3c8.2,5,15.1,12,19.9,20.2h-40
		C35.1,15.2,42,8.3,50.3,3.3z M18.9,80H9.8V64.6l9.1-9.1C18.9,55.5,18.9,80,18.9,80z M50.3,96.6c-4.6-3-7.6-8-8.1-13.4h16.2
		C57.9,88.6,54.9,93.6,50.3,96.6z M78.2,80H60H40.4H22.2V52.8c0-6.3,1-12.5,3-18.3H36c0.9,0,1.7-0.7,1.6-1.6c0-0.9-0.7-1.6-1.6-1.6
		h-9.6c0.6-1.5,1.3-3,2-4.5H72c4,8.1,6.2,17,6.2,26V80z M90.7,80h-9V55.6l9,9V80z"/>
	<path class="st0" d="M30.1,85.9c-0.9,0-1.6,0.7-1.6,1.6v5.9c0,0.9,0.7,1.6,1.6,1.6s1.7-0.7,1.6-1.6v-5.9
		C31.7,86.6,31,85.9,30.1,85.9z"/>
</g>
</svg>
