<?xml version="1.0" encoding="utf-8"?>
<!-- Generator: Adobe Illustrator 21.0.0, SVG Export Plug-In . SVG Version: 6.00 Build 0)  -->
<svg version="1.1" id="Capa_1" xmlns="http://www.w3.org/2000/svg" xmlns:xlink="http://www.w3.org/1999/xlink" x="0px" y="0px"
	 viewBox="0 0 100 100" style="enable-background:new 0 0 100 100;" xml:space="preserve">
<style type="text/css">
	.st0{fill:#ffffff;}
</style>
<g>
	<path class="st0" d="M53.9,20.1v8.6h-2.8V26c0-0.8-0.6-1.4-1.4-1.4l0,0h-8.4v-1.7c2.2-0.8,3.3-3.2,2.6-5.4
		c-0.8-2.2-3.2-3.3-5.4-2.6c-2.2,0.8-3.3,3.2-2.6,5.4c0.4,1.2,1.4,2.1,2.6,2.6V26c0,0.8,0.6,1.4,1.4,1.4l0,0h8.4v1.4
		c-0.8,0-1.4,0.6-1.4,1.4l0,0V33h-7v-1.4c0-0.8-0.6-1.4-1.4-1.4l0,0h-5.9c-0.8-2.2-3.2-3.3-5.4-2.6c-2.2,0.8-3.3,3.2-2.6,5.4
		c0.8,2.2,3.2,3.3,5.4,2.6c1.2-0.4,2.1-1.4,2.6-2.6h4.5v1.4c0,0.8,0.6,1.4,1.4,1.4l0,0h8.4v2.8H35.7c-0.8,0-1.4,0.6-1.4,1.4l0,0v5.9
		c-2.2,0.8-3.3,3.2-2.6,5.4c0.8,2.2,3.2,3.3,5.4,2.6c2.2-0.8,3.3-3.2,2.6-5.4c-0.4-1.2-1.4-2.1-2.6-2.6v-4.5h9.8v1.4
		c0,0.8,0.6,1.4,1.4,1.4l0,0h1.4v4.2h-2.8c-0.8,0-1.4,0.6-1.4,1.4l0,0v5.9c-2.2,0.8-3.3,3.2-2.6,5.4c0.8,2.2,3.2,3.3,5.4,2.6
		c2.2-0.8,3.3-3.2,2.6-5.4c-0.4-1.2-1.4-2.1-2.6-2.6v-4.5h2.8c0.8,0,1.4-0.6,1.4-1.4l0,0v-5.6h5.6v4.2c0,0.8,0.6,1.4,1.4,1.4l0,0h7
		v3.1c-2.2,0.8-3.3,3.2-2.6,5.4c0.8,2.2,3.2,3.3,5.4,2.6c2.2-0.8,3.3-3.2,2.6-5.4c-0.4-1.2-1.4-2.1-2.6-2.6v-4.5
		c0-0.8-0.6-1.4-1.4-1.4l0,0h-7v-2.8c0.8,0,1.4-0.6,1.4-1.4l0,0V40h10c0.8,2.2,3.2,3.3,5.4,2.6c2.2-0.8,3.3-3.2,2.6-5.4
		c-0.8-2.2-3.2-3.3-5.4-2.6c-1.2,0.4-2.1,1.4-2.6,2.6h-10V33h4.2c0.8,0,1.4-0.6,1.4-1.4l0,0v-5.9c2.2-0.8,3.3-3.2,2.6-5.4
		s-3.2-3.3-5.4-2.6c-2.2,0.8-3.3,3.2-2.6,5.4c0.4,1.2,1.4,2.1,2.6,2.6v4.5h-2.8c0-0.8-0.6-1.4-1.4-1.4l0,0h-4.2v-8.6
		c2.2-0.8,3.3-3.2,2.6-5.4s-3.2-3.3-5.4-2.6c-2.2,0.8-3.3,3.2-2.6,5.4C51.8,18.8,52.7,19.7,53.9,20.1z M39.9,17.6
		c0.8,0,1.4,0.6,1.4,1.4s-0.6,1.4-1.4,1.4c-0.8,0-1.4-0.6-1.4-1.4S39.1,17.6,39.9,17.6z M28.7,33c-0.8,0-1.4-0.6-1.4-1.4
		c0-0.8,0.6-1.4,1.4-1.4s1.4,0.6,1.4,1.4C30.1,32.3,29.5,33,28.7,33z M35.7,51.1c-0.8,0-1.4-0.6-1.4-1.4s0.6-1.4,1.4-1.4
		c0.8,0,1.4,0.6,1.4,1.4C37.1,50.5,36.5,51.1,35.7,51.1z M46.9,60.9c-0.8,0-1.4-0.6-1.4-1.4c0-0.8,0.6-1.4,1.4-1.4
		c0.8,0,1.4,0.6,1.4,1.4C48.3,60.3,47.7,60.9,46.9,60.9z M67.9,58.1c-0.8,0-1.4-0.6-1.4-1.4s0.6-1.4,1.4-1.4s1.4,0.6,1.4,1.4
		S68.7,58.1,67.9,58.1z M76.3,37.2c0.8,0,1.4,0.6,1.4,1.4c0,0.8-0.6,1.4-1.4,1.4s-1.4-0.6-1.4-1.4S75.5,37.2,76.3,37.2z M66.5,20.4
		c0.8,0,1.4,0.6,1.4,1.4s-0.6,1.4-1.4,1.4s-1.4-0.6-1.4-1.4S65.7,20.4,66.5,20.4z M59.5,41.4h-9.8v-9.8h9.8V41.4z M55.3,14.8
		c0.8,0,1.4,0.6,1.4,1.4c0,0.8-0.6,1.4-1.4,1.4s-1.4-0.6-1.4-1.4C53.9,15.4,54.5,14.8,55.3,14.8z"/>
</g>
<g>
	<path class="st0" d="M79.2,100h-3.5V71l0.6-1.3c8.6-7.1,13.5-17.7,13.5-28.9C89.8,20.2,73.3,3.5,53,3.5S16.3,20.2,16.3,40.8
		l-0.1,0.7L8.6,58.7h6.8l1.8,1.8v24.7L34,85.6l1.7,1.7V100h-3.5V89l-16.9-0.4l-1.7-1.7V62.2H5.9l-1.6-2.5l8.5-19.3
		C13,18.1,31,0,53.1,0c22.2,0,40.3,18.3,40.3,40.8c0,12-5.2,23.3-14.2,31.1V100z"/>
</g>
</svg>
