<?xml version="1.0" encoding="utf-8"?>
<!-- Generator: Adobe Illustrator 21.0.0, SVG Export Plug-In . SVG Version: 6.00 Build 0)  -->
<svg version="1.1" id="Capa_1" xmlns="http://www.w3.org/2000/svg" xmlns:xlink="http://www.w3.org/1999/xlink" x="0px" y="0px"
	 viewBox="0 0 100 100" style="enable-background:new 0 0 100 100;" xml:space="preserve">
<style type="text/css">
	.st0{fill:#0000DC;}
</style>
<g>
	<path class="st0" d="M82.9,72.6V53.1l-2.5,1.6v17.9H12.7v-43H56v-2.4H11.4l-1.2,1.2v44.2h-9L0,74.2l2,6.9L3.1,82h86.8l1.2-0.9
		l2-6.9l-1.2-1.6H82.9z M89,79.5H4.1L2.8,75h8.6h70.2h8.7L89,79.5z"/>
	<path class="st0" d="M56.6,39.6c-0.3-0.8-0.5-1.6-0.6-2.5H20.8l-1.2,1.2v9.2l1.2,1.2h47l-3.9-2.3H22v-6.8H56.6z"/>
	<path class="st0" d="M99.5,15.3l-3-3l-0.9-0.4H61.7l-0.9,0.4l-3,3l-0.4,0.9v20.1c0,2.8,1.4,5.2,3.7,6.7l17,10.6h1.3l16.7-10.5
		c2.4-1.6,3.8-4.2,3.8-7V16.2L99.5,15.3z M97.3,36.1c0,2-1,3.8-2.7,4.9L78.7,51.1L62.4,40.8c-1.6-1-2.5-2.7-2.5-4.6V16.7l2.3-2.2H95
		l2.3,2.2V36.1z"/>
	<path class="st0" d="M55.9,60.4c0,4.1,3.3,7.5,7.5,7.5c4.2,0,7.5-3.4,7.5-7.5c0-4.1-3.4-7.5-7.5-7.5C59.3,52.9,55.9,56.3,55.9,60.4
		z M63.4,55.3c2.9,0,5.1,2.3,5.1,5.1s-2.3,5.1-5.1,5.1c-2.8,0-5.1-2.3-5.1-5.1S60.6,55.3,63.4,55.3z"/>
	<rect x="20.8" y="52.8" class="st0" width="28.1" height="2.5"/>
	<rect x="20.8" y="59.2" class="st0" width="28.1" height="2.5"/>
	<rect x="20.8" y="65.5" class="st0" width="28.1" height="2.5"/>
</g>
</svg>
