<?xml version="1.0" encoding="utf-8"?>
<!-- Generator: Adobe Illustrator 21.0.0, SVG Export Plug-In . SVG Version: 6.00 Build 0)  -->
<svg version="1.1" id="Capa_1" xmlns="http://www.w3.org/2000/svg" xmlns:xlink="http://www.w3.org/1999/xlink" x="0px" y="0px"
	 viewBox="0 0 100 100" style="enable-background:new 0 0 100 100;" xml:space="preserve">
<style type="text/css">
	.st0{fill:#0000DC;}
</style>
<g>
	<path class="st0" d="M85.4,14.6C75.9,5.2,63.4,0,50,0S24.1,5.2,14.6,14.6S0,36.6,0,50s5.2,25.9,14.6,35.4S36.6,100,50,100
		s25.9-5.2,35.4-14.6S100,63.4,100,50S94.8,24.1,85.4,14.6z M82.8,82.8C74,91.5,62.4,96.3,50,96.3s-24-4.8-32.8-13.6
		C8.5,74,3.7,62.4,3.7,50s4.8-24,13.6-32.8C26,8.5,37.6,3.7,50,3.7s24,4.8,32.8,13.6C91.5,26,96.3,37.6,96.3,50S91.5,74,82.8,82.8z"
		/>
	<path class="st0" d="M50,10.4c-21.8,0-39.6,17.8-39.6,39.6S28.2,89.6,50,89.6S89.6,71.8,89.6,50S71.8,10.4,50,10.4z M50,85.9
		c-19.8,0-35.9-16.1-35.9-35.9S30.2,14.1,50,14.1S85.9,30.2,85.9,50S69.8,85.9,50,85.9z"/>
	<path class="st0" d="M51.7,46.1V33.9c4.7,0.9,5.7,3.2,6,6H62c-0.3-8.2-7.1-9.4-10.4-9.7v-3.3h-2.4v3.3c-6.1,0-10.6,4.4-10.6,10
		c0,7,5.4,8.8,10.6,10.1v13.5c-5.1-0.8-6.5-2.7-6.8-8.1H38c0,8.8,5,11.5,11.3,11.8v4.9h2.4v-4.9c4.2,0,11.2-2.3,11.2-11
		C62.9,49.4,58.7,48.1,51.7,46.1z M49.3,45.6c-3.1-0.5-6.1-2.1-6.1-5.8c0-3.1,2.1-5.9,6.1-5.9V45.6z M51.7,63.7v-13l2.8,0.9
		c2.1,0.7,4,2.8,4,5.7C58.4,60.6,56.2,63.7,51.7,63.7z"/>
</g>
</svg>
