<?xml version="1.0" encoding="utf-8"?>
<!-- Generator: Adobe Illustrator 21.0.0, SVG Export Plug-In . SVG Version: 6.00 Build 0)  -->
<svg version="1.1" id="Capa_1" xmlns="http://www.w3.org/2000/svg" xmlns:xlink="http://www.w3.org/1999/xlink" x="0px" y="0px"
	 viewBox="0 0 100 100" style="enable-background:new 0 0 100 100;" xml:space="preserve">
<style type="text/css">
	.st0{fill:#ffffff;}
</style>
<g>
	<path class="st0" d="M88,77.1c2.1-1.6,3.5-4.2,3.4-7.1v-3c0-4.9-4-9-9-9c-4.9,0-9,4-9,9v3c0,2.9,1.4,5.4,3.5,7.1
		c-4.8,1.3-8.7,4.7-10.6,9.2c-2-4.5-5.9-7.9-10.7-9.2c2.1-1.6,3.4-4.2,3.4-7.1v-3c0-4.9-4.1-9-9-9s-9,4-9,9v3c0,2.9,1.4,5.4,3.5,7.1
		c-4.8,1.3-8.7,4.8-10.7,9.3c-1.9-4.5-5.8-8-10.6-9.3c2.1-1.6,3.4-4.2,3.4-7v-3c0-4.9-4.1-9-9-9c-4.9,0-9,4-9,9v3
		c0,2.8,1.3,5.3,3.4,7C5.1,78.9,0,85.2,0,92.7v2.2l1.3,1.4h32.5h32.4h32.5L100,95v-2.2C100,85.3,94.9,79,88,77.1z M76.1,67
		c0-3.5,2.8-6.3,6.3-6.3s6.4,2.8,6.3,6.3v3c0,3.5-2.8,6.3-6.3,6.3s-6.3-2.8-6.3-6.3V67z M43.7,67c0-3.5,2.8-6.3,6.3-6.3
		s6.3,2.8,6.3,6.3v3c0,3.5-2.8,6.3-6.3,6.3s-6.3-2.8-6.3-6.3V67z M11.3,67c0-3.5,2.8-6.3,6.3-6.3s6.3,2.8,6.3,6.3v3
		c0,3.5-2.8,6.3-6.3,6.3s-6.3-2.8-6.3-6.3V67z M32.4,93.6H2.7v-0.9c0-7.6,6-13.6,13.5-13.6v9.1h2.7v-9.1c7.5,0.1,13.5,6.1,13.5,13.6
		V93.6z M64.8,93.6H35.1c0,0,0,0,0,0c0-0.2,0-0.9,0-0.9c0-7.5,6.1-13.6,13.6-13.6v9.1h2.7v-9.1c7.4,0.1,13.4,6.2,13.4,13.6V93.6z
		 M97.3,93.6H67.6c0,0,0,0,0,0c0-0.2,0-0.9,0-0.9c0-7.5,6-13.5,13.5-13.6v9.1h2.7v-9.1c7.5,0.1,13.5,6.1,13.5,13.6V93.6z"/>
	<polygon class="st0" points="18.9,46.6 48.7,46.6 48.7,51.7 51.4,51.7 51.4,46.6 81.1,46.6 81.1,52.2 83.8,52.2 83.8,45.2
		82.4,43.9 51.4,43.9 51.4,39.1 48.7,39.1 48.7,43.9 17.6,43.9 16.2,45.2 16.2,52.2 18.9,52.2 	"/>
	<path class="st0" d="M77.8,36.1l1.3-1.4V3.3L77.8,2H22.6l-1.3,1.3v31.5l1.3,1.3H77.8z M23.9,4.7h52.5v28.7H23.9V4.7z"/>
	<path class="st0" d="M56,14.4v-2.1c0-3.5-2.9-6.4-6.5-6.4S43,8.8,43,12.4v2h-1.7L40,15.7v14.8l1.4,1.4h16.2l1.2-1.3V15.7l-1.3-1.3
		H56z M45.7,12.3c0-2.1,1.7-3.8,3.8-3.8s3.8,1.7,3.8,3.8v2h-7.6V12.3z M56.3,29.2H42.7V17h1.7h10.2h1.7V29.2z"/>
	<path class="st0" d="M49.5,17.6c-2.3,0-4.1,1.8-4.1,4.1c0,1.8,1.2,3.3,2.8,3.9v2.1h2.7v-2.2c1.6-0.6,2.7-2.1,2.7-3.8
		C53.6,19.4,51.8,17.6,49.5,17.6z M49.5,23.1c-0.8,0-1.4-0.6-1.4-1.4c0-0.8,0.6-1.4,1.4-1.4s1.4,0.6,1.4,1.4
		C50.9,22.5,50.3,23.1,49.5,23.1z"/>
</g>
</svg>
